<?xml version="1.0" encoding="utf-8"?>
<!-- Generator: Adobe Illustrator 25.0.0, SVG Export Plug-In . SVG Version: 6.00 Build 0)  -->
<svg version="1.1" id="Layer_1" xmlns="http://www.w3.org/2000/svg" xmlns:xlink="http://www.w3.org/1999/xlink" x="0px" y="0px"
	 viewBox="0 0 113.8 140.2" style="enable-background:new 0 0 113.8 140.2;" xml:space="preserve">
<style type="text/css">
	.st0{fill:#FFFFFF;}
</style>
<path class="st0" d="M107.1,76.1c-1.7-1.3-3.1-2.9-4-4.8c-0.1-0.2-0.2-0.4-0.3-0.6c0.1-0.2,0.3-1.4,0.8-2.3c0.9-1.9,1.9-3.1,3.6-4.4
	c4.1-3,6.7-7.9,6.7-13.4c0-9-7.4-16.5-16.4-16.6c-3.5,0-6.7,1-9.3,2.7l0,0c0,0,0,0-0.1,0c-0.2,0.1-0.3,0.2-0.5,0.3
	c-1.2,0.7-2.5,0.6-3,0.1c0,0-0.1-0.1-0.1-0.1c-0.2-0.2-3.1-4.4-3.9-6.4c-1.8-4-4-7.6-7.3-10.5c-3-2.7-6.4-4.7-10.3-5.9
	c-0.3-0.1-0.5-0.2-0.6-0.3c-0.1-0.4-0.1-0.7-0.2-1.1L60.5,0.4c0-0.2-0.2-0.4-0.5-0.4h0c-0.6,0-1,0.5-1,1v22.5c0,0.1,0.1,0.2,0.2,0.2
	c0.1,0,0.2,0,0.3,0.1c0,0,0,0,0,0.1c0,0,0,0,0,0c1.8,0.4,3.4,1.1,4.8,2.3c0,0,0,0,0,0l0,0c0.9,0.7,2.3,2.3,2.4,2.3
	c0.1,0.1,0.2,0.2,0.3,0.2c1.9,2.7,3.9,6.1,3.9,9.9c0,6.3-4.1,11.7-8.7,14l0,0c-0.2-0.4-0.4-0.8-0.6-1.3c4.6-1.7,7.9-6.2,7.9-11.4
	c0-4.4-2.3-8.2-5.8-10.3c-1.6-1.2-3.6-2-5.7-2.2l-0.1-4.1c0-2.9,0-5.7,0-8.6c0-0.4,0-0.7,0-1.1c0-0.1-0.1-0.3-0.1-0.4v0h0
	c0-0.1-0.1-0.1-0.1-0.1c-0.1,0-0.2,0-0.3-0.1V13c-0.1,0-0.2,0-0.4,0c-0.1,0-0.2,0-0.4,0v0.1c-0.1,0-0.2,0-0.3,0.1c0,0-0.1,0-0.1,0.1
	h0v0C56,13.3,56,13.5,56,13.6c0,0.4,0,0.7,0,1.1c0,2.9,0,5.7,0,8.6l-0.1,4.1c-2.1,0.2-4.1,1-5.7,2.2c-3.5,2.1-5.8,6-5.8,10.3
	c0,5.2,3.3,9.7,7.9,11.4c-0.2,0.4-0.4,0.8-0.6,1.3l0,0c-4.7-2.3-8.7-7.7-8.7-14c0-3.8,1.9-7.2,3.9-9.9c0.1-0.1,0.2-0.2,0.3-0.2
	c0,0,1.5-1.7,2.4-2.3l0,0c0,0,0,0,0,0c1.4-1.1,3.1-1.9,4.8-2.3c0,0,0,0.1,0,0c0,0,0,0,0-0.1c0.1,0,0.2,0,0.3-0.1
	c0.1,0,0.2-0.1,0.2-0.2V1c0-0.6-0.5-1-1-1h0c-0.3,0-0.5,0.2-0.5,0.4L51.8,13c0,0.4-0.1,0.7-0.2,1.1c-0.1,0.2-0.3,0.3-0.6,0.3
	c-3.9,1.1-7.3,3.2-10.3,5.9c-3.2,2.9-5.5,6.5-7.3,10.5c-0.9,2-3.7,6.2-3.9,6.4c0,0-0.1,0.1-0.1,0.1c-0.6,0.5-1.9,0.6-3-0.1
	c-0.2-0.1-0.3-0.2-0.5-0.3c0,0,0,0-0.1,0l0,0c-2.7-1.8-5.9-2.8-9.3-2.7C7.4,34.2,0,41.7,0,50.7C0,56.2,2.6,61,6.7,64.1
	c1.7,1.3,2.7,2.5,3.6,4.4c0.4,0.9,0.7,2,0.8,2.3c-0.1,0.2-0.2,0.4-0.3,0.6c-1,1.9-2.3,3.5-4,4.8C2.6,79.1,0,84,0,89.5
	c0,9,7.4,16.5,16.4,16.6c3.5,0,6.7-1,9.3-2.7l0,0c0,0,0,0,0.1,0c0.2-0.1,0.3-0.2,0.5-0.3c1.2-0.7,2.5-0.6,3-0.1c0,0,0.1,0.1,0.1,0.1
	c0.2,0.2,3.1,4.4,3.9,6.4c1.8,4,4,7.6,7.3,10.5c3,2.7,6.4,4.7,10.3,5.9c0.3,0.1,0.5,0.2,0.6,0.3c0.1,0.4,0.1,0.7,0.2,1.1l1.5,12.6
	c0,0.2,0.2,0.4,0.5,0.4h0c0.6,0,1-0.5,1-1v-22.5c0-0.1-0.1-0.2-0.2-0.2c-0.1,0-0.2,0-0.3-0.1c0,0,0,0,0-0.1c0,0,0,0,0,0
	c-1.8-0.4-3.4-1.1-4.8-2.3c0,0,0,0,0,0l0,0c-0.9-0.7-1.6-1.4-2.3-2.3c0,0,0,0,0,0c-0.1-0.1-0.2-0.2-0.3-0.2
	c-1.9-2.7-3.1-6.1-3.1-9.9c0-6.3,1-10,8-14l0,0c0.2,0.4,0.4,0.8,0.6,1.3c-4.6,1.7-7.9,6.2-7.9,11.4c0,6.5,5.1,11.8,11.5,12.1
	l0.1,4.5c0,2.9,0,5.7,0,8.6c0,0.4,0,0.7,0,1.1c0,0.1,0.1,0.3,0.1,0.4v0h0c0,0.1,0.1,0.1,0.1,0.1c0.1,0,0.2,0,0.3,0.1v0.1
	c0.1,0,0.2,0,0.4,0c0.1,0,0.2,0,0.4,0v-0.1c0.1,0,0.2,0,0.3-0.1c0,0,0.1,0,0.1-0.1h0v0c0.1-0.1,0.1-0.3,0.1-0.4c0-0.4,0-0.7,0-1.1
	c0-2.9,0-5.7,0-8.6l0.1-4.5c6.4-0.4,11.5-5.6,11.5-12.1c0-5.2-3.3-9.7-7.9-11.4c0.2-0.4,0.4-0.8,0.6-1.3l0,0c7,4,8,7.7,8,14
	c0,3.8-1.2,7.2-3.1,9.9c-0.1,0.1-0.2,0.2-0.3,0.2c0,0,0,0,0,0c-0.7,0.9-1.5,1.6-2.3,2.3l0,0c0,0,0,0,0,0c-1.4,1.1-3.1,1.9-4.8,2.3
	c0,0,0-0.1,0,0c0,0,0,0,0,0.1c-0.1,0-0.2,0-0.3,0.1c-0.1,0-0.2,0.1-0.2,0.2v22.5c0,0.6,0.5,1,1,1h0c0.3,0,0.5-0.2,0.5-0.4l1.5-12.6
	c0-0.4,0.1-0.7,0.2-1.1c0.1-0.2,0.3-0.3,0.6-0.3c3.9-1.1,7.3-3.2,10.3-5.9c3.2-2.9,5.5-6.5,7.3-10.5c0.9-2,3.7-6.2,3.9-6.4
	c0,0,0.1-0.1,0.1-0.1c0.6-0.5,1.9-0.6,3,0.1c0.2,0.1,0.3,0.2,0.5,0.3c0,0,0,0,0.1,0l0,0c2.7,1.8,5.9,2.8,9.3,2.7
	c9-0.1,16.4-7.6,16.4-16.6C113.8,84,111.2,79.1,107.1,76.1z M84.5,45.7c2.2-5.4,7.7-9.2,14-8.6c6.4,0.6,11.5,5.7,12.2,12.1
	c0.6,5.4-2,10.2-6.1,12.9c-0.9,0.6-2.1,0.5-3-0.1l-7-5.5c0.8,0.3,1.6,0.5,2.5,0.5c3.7,0,6.7-3,6.7-6.7s-3-6.7-6.7-6.7
	c-3.7,0-6.7,3-6.7,6.7c0,1.5,0.5,2.8,1.3,3.9L88.9,52c-1.3-1-2.5-2.1-3.7-3.2C84.4,48,84.1,46.8,84.5,45.7z M91.9,76.9
	c0.2-0.1,0.5-0.2,0.7-0.3c0,0,3.8-1.1,5.4-0.5c0.3,0.1,0.4,0.5,0.2,0.8L93.9,80C93.3,79,92.5,77.7,91.9,76.9z M91,74
	c-0.3,0.1-0.6,0.3-0.9,0.4c-0.1-0.1-0.2-0.3-0.3-0.4c-1.1-1.3-2.2-2.6-3.2-3.9c1-1.3,2.1-2.7,3.2-3.9c0.1-0.1,0.2-0.3,0.3-0.4
	c0.3,0.1,0.6,0.3,0.9,0.4c1.1,0.4,2.1,1.1,3,1.9c0.8,0.8,1.7,1.6,2.1,2c-0.4,0.4-1.2,1.2-2.1,2C93.1,72.9,92.1,73.6,91,74z
	 M84.7,52.6c4.3,3.3,7.7,5.6,9.4,8.9c0.3,0.5,0.5,1.1,0.7,1.6c0.2,0.5-0.3,1-0.8,0.9c-5.2-1.2-9.3-5.5-10.3-10.8
	C83.7,52.7,84.3,52.3,84.7,52.6z M80.7,57.3c0.3-0.1,0.5-0.1,0.8,0.1c0.2,0.1,0.5,0.5,0.7,0.7c1.3,2.7,3.3,4.9,5.7,6.5
	c-0.9,1.2-1.9,2.4-2.8,3.7c-0.8-1.1-1.6-2.2-2.4-3.2c-1.5-2-2.3-4.2-2.4-6.7C80.4,57.9,80.5,57.4,80.7,57.3z M70.7,31.1
	c-0.4-0.5-0.8-1-1.2-1.6L65,22.2c-1.1-1.9-1.9-3.9-2.4-6c0.1,0,0.2,0,0.4,0c0.2,0,0.3,0.1,0.5,0.2c4,1.7,7.3,4.3,9.9,7.7
	c0.9,1.1,1.4,2.2,2,3.5c0.3,0.7,0.3,1.4,1.4,1.5c0.3,0,0.6,0.4,0.7,0.7c0.8,1.3,1.6,2.6,2.2,4c1,2.2,0.4,4.7,0.2,5.6
	c-0.1,0.6-0.6,0.7-1.1,0.5c-0.4-0.2-0.7-0.5-1-0.8C75.1,36.9,73,34,70.7,31.1z M66.2,39.6c0,4-2.4,7.4-5.9,8.8
	c-1.4-4-2.2-8.1-2.3-12.4L58,30.2C62.6,30.8,66.2,34.8,66.2,39.6z M56.9,51.3c1.5,0,2.6,1.2,2.6,2.7c0,1.5-1.2,2.6-2.6,2.7
	c-1.5,0-2.6-1.2-2.6-2.7C54.3,52.5,55.5,51.3,56.9,51.3z M47.6,39.6c0-4.8,3.6-8.8,8.3-9.4l-0.1,5.9c-0.1,4.2-0.8,8.4-2.3,12.4
	C50,47,47.6,43.6,47.6,39.6z M34,33.9c0.6-1.4,1.4-2.7,2.2-4c0.2-0.3,0.5-0.7,0.7-0.7c1.1-0.1,1.1-0.8,1.4-1.5
	c0.6-1.3,1.1-2.4,2-3.5c2.6-3.4,6-6,9.9-7.7c0.2-0.1,0.3-0.2,0.5-0.2c0.1,0,0.3,0,0.4,0c-0.5,2.1-1.3,4.1-2.4,6l-4.4,7.4
	c-0.4,0.5-0.8,1-1.2,1.6c-2.3,2.8-4.5,5.8-7.3,8.2c-0.3,0.3-0.6,0.6-1,0.8c-0.5,0.2-0.9,0.1-1.1-0.5C33.6,38.7,33,36.1,34,33.9z
	 M32.2,57.4c0.3-0.2,0.6-0.2,0.8-0.1c0.2,0.1,0.4,0.7,0.4,1C33.3,60.8,32.5,63,31,65c-0.8,1.1-1.6,2.2-2.4,3.2
	c-0.9-1.2-1.9-2.4-2.8-3.7c2.4-1.6,4.4-3.9,5.7-6.5C31.7,57.9,32.1,57.5,32.2,57.4z M19.9,80l-4.4-3.1c-0.2-0.3-0.1-0.7,0.2-0.8
	c1.6-0.6,5.4,0.5,5.4,0.5c0.2,0.1,0.5,0.2,0.7,0.3C21.3,77.7,20.5,79,19.9,80z M19.8,72.1c-0.8-0.8-1.7-1.6-2.1-2
	c0.4-0.4,1.2-1.2,2.1-2c0.9-0.8,1.9-1.5,3-1.9c0.3-0.1,0.6-0.3,0.9-0.4c0.1,0.1,0.2,0.3,0.3,0.4c1.1,1.3,2.2,2.6,3.2,3.9
	c-1,1.3-2.1,2.7-3.2,3.9c-0.1,0.1-0.2,0.3-0.3,0.4c-0.3-0.1-0.6-0.3-0.9-0.4C21.7,73.6,20.7,72.9,19.8,72.1z M30,53.2
	c-1,5.3-5.1,9.6-10.3,10.8c-0.5,0.1-1-0.4-0.8-0.9c0.2-0.6,0.4-1.1,0.7-1.6c1.7-3.2,5.1-5.5,9.4-8.9C29.5,52.3,30.1,52.7,30,53.2z
	 M9.2,62.2c-4.1-2.7-6.7-7.5-6.1-12.9c0.7-6.4,5.8-11.5,12.2-12.1c6.3-0.6,11.9,3.1,14,8.6c0.4,1.1,0.1,2.3-0.7,3.1
	c-1.2,1.1-2.4,2.2-3.7,3.2l-3.3,2.6c0.9-1.2,1.5-2.6,1.5-4.2c0-3.7-3-6.7-6.7-6.7s-6.7,3-6.7,6.7s3,6.7,6.7,6.7c1,0,2-0.2,2.9-0.7
	L12.2,62C11.3,62.7,10.1,62.8,9.2,62.2z M29.3,94.5c-2.2,5.4-7.7,9.2-14,8.6c-6.4-0.6-11.5-5.7-12.2-12.1c-0.6-5.4,2-10.2,6.1-12.9
	c0.9-0.6,2.1-0.5,3,0.1l5,3.9c-0.2,0-0.5,0-0.7,0c-3.7,0-6.7,3-6.7,6.7c0,3.7,3,6.7,6.7,6.7s6.7-3,6.7-6.7c0-0.8-0.1-1.6-0.4-2.3
	l2.2,1.7c1.3,1,2.5,2.1,3.7,3.2C29.4,92.1,29.7,93.4,29.3,94.5z M29.1,87.5c-2.8-2.2-5.3-3.9-7.1-5.8c0.7-1.3,1.5-2.6,2.2-3.7
	c3,2,5.2,5.2,5.8,8.9C30.1,87.5,29.5,87.8,29.1,87.5z M30.2,79.8c-1.2-1.7-2.7-3.1-4.4-4.2c0.9-1.2,1.9-2.4,2.8-3.7
	c0.8,1.1,1.6,2.2,2.4,3.2c0.1,0.1,0.2,0.3,0.3,0.4C30.8,76.9,30.5,78.4,30.2,79.8z M30.1,70.1c0.5-0.6,0.9-1.2,1.4-1.8
	c1-1.4,5.4-7.4,5.2-10.8c0-0.5-0.1-3.2-0.2-4.4c-0.1-1.5-0.2-3-0.3-4.4c0-0.1,0-0.1,0-0.2c0.1-0.8,0.5-1.5,1.2-1.9
	c1.7-1.2,3.3-2.1,4.2-2.5c1.3,4.7,4.7,8.5,9.2,10.3l-2.1,4.1c-7.3,2.4-13.3,7.8-16.5,14.8c-0.3-0.5-0.6-1-0.8-1.2
	C31,71.3,30.6,70.7,30.1,70.1z M50.9,61.7c0,0.4-0.2,0.7-0.5,0.9c0,0-0.1,0.1-0.2,0.1c-7.2,2.4-12.9,8.3-15,15.6
	c-0.5-1-1-1.9-1.5-2.8c2.1-5.4,6-9.8,10.9-12.8c1.1-0.6,3.9-1.8,5.2-1.9c0.1,0,0.1,0,0.2,0C50.5,60.7,50.9,61.1,50.9,61.7z
	 M32.1,83.2c0,0,0-0.1,0-0.2C32,82.7,32,82.4,32,82.1c0.1-1.3,0.4-2.6,0.7-3.8c0.3,0.8,0.6,1.7,0.8,2.6c0.1,0.7,0.1,1.4,0,2.1
	C33.3,83.6,32.4,83.8,32.1,83.2z M44.5,110.2l4.5,7.6c1.2,1.9,2,4,2.5,6.2c-0.1,0-0.2,0-0.4,0c-0.2,0-0.3-0.2-0.5-0.2
	c-4.1-1.8-7.5-4.4-10.3-8c-0.9-1.2-1.4-2.3-2-3.7c-0.3-0.7-0.3-1.5-1.4-1.6c-0.3,0-0.6-0.5-0.8-0.8c-0.8-1.4-1.6-2.7-2.3-4.1
	c-1-2.3-0.4-4.9-0.2-5.8c0.1-0.6,0.6-0.7,1.1-0.5c0.4,0.2,0.7,0.5,1,0.8c3,2.5,5.1,5.5,7.6,8.4C43.6,109.1,44.1,109.7,44.5,110.2z
	 M47.4,100.4c0-4,2.5-7.5,5.9-8.9c1.5,4,2.3,8.3,2.4,12.6l0.1,5.9C51.1,109.3,47.4,105.3,47.4,100.4z M66.4,100.4
	c0,4.9-3.7,9-8.4,9.6l0.1-5.9c0.1-4.3,0.9-8.6,2.4-12.6C63.9,92.9,66.4,96.4,66.4,100.4z M56.9,84.6c-3.9-0.2-7.1-3.5-7.1-7.5
	c0-4,3.1-7.3,7.1-7.5c3.9,0.2,7.1,3.5,7.1,7.5C64,81.1,60.8,84.3,56.9,84.6z M63,85.9l0.8-1.7c1.8-1.9,2.9-4.4,2.9-7.2
	c0-5.4-4.2-9.9-9.6-10.3v0c-0.1,0-0.2,0-0.3,0c-0.1,0-0.2,0-0.3,0v0c-5.3,0.4-9.6,4.8-9.6,10.3c0,2.8,1.1,5.3,2.9,7.2l0.8,1.7
	c-4.5,1.8-7.9,5.6-9.2,10.3c-1.1-0.5-2.8-1.5-4.8-2.9l0-9.6c0.5-10.7,9.2-19.3,20-19.6c10.8,0.3,19.5,8.9,20,19.6l0,9.6
	c-2,1.3-3.7,2.4-4.8,2.9C70.8,91.5,67.4,87.7,63,85.9z M62.9,61.7c0-0.5,0.4-0.9,0.9-0.9c0.1,0,0.2,0,0.2,0c1.4,0.1,4.2,1.2,5.2,1.9
	c4.9,2.9,8.8,7.4,10.9,12.8c-0.5,0.9-1.1,1.9-1.5,2.8c-2.1-7.4-7.8-13.2-15-15.6c-0.1,0-0.1-0.1-0.2-0.1
	C63.1,62.4,62.9,62,62.9,61.7z M80.1,105.7c-0.7,1.4-1.5,2.8-2.3,4.1c-0.2,0.3-0.5,0.8-0.8,0.8c-1.2,0.1-1.1,0.8-1.4,1.6
	c-0.6,1.4-1.1,2.5-2,3.7c-2.7,3.5-6.2,6.2-10.3,8c-0.2,0.1-0.3,0.2-0.5,0.2c-0.1,0-0.3,0-0.4,0c0.5-2.2,1.3-4.3,2.5-6.2l4.5-7.6
	c0.4-0.5,0.8-1.1,1.3-1.6c2.4-3,4.6-6,7.6-8.4c0.3-0.3,0.6-0.6,1-0.8c0.5-0.2,1-0.1,1.1,0.5C80.5,100.8,81.1,103.5,80.1,105.7z
	 M81.7,83c0,0.1,0,0.2,0,0.2c-0.3,0.6-1.2,0.4-1.4-0.2c-0.1-0.7-0.1-1.4,0-2.1c0.2-0.9,0.5-1.9,0.8-2.6c0.3,1.2,0.5,2.5,0.7,3.8
	C81.8,82.4,81.8,82.7,81.7,83z M81.5,73.1c-3.2-6.9-9.2-12.3-16.5-14.8L63,54.2c4.5-1.8,7.9-5.6,9.2-10.3c1,0.4,2.5,1.3,4.2,2.5
	c0.7,0.4,1.1,1.1,1.2,1.9c0,0.1,0,0.2,0,0.2c-0.1,1.5-0.2,3-0.3,4.4c-0.1,1.1-0.2,3.9-0.2,4.4c-0.2,3.4,4.2,9.4,5.2,10.8
	c0.5,0.6,0.9,1.2,1.4,1.8c-0.5,0.6-0.9,1.2-1.4,1.9C82.1,72.2,81.9,72.6,81.5,73.1z M82.5,75.6c0.1-0.1,0.2-0.3,0.3-0.4
	c0.8-1.1,1.6-2.2,2.4-3.2c0.9,1.2,1.9,2.4,2.8,3.7c-1.7,1.1-3.2,2.6-4.4,4.2C83.4,78.4,83,76.9,82.5,75.6z M83.8,87
	c0.7-3.7,2.8-6.9,5.8-8.9c0.6,1,1.4,2.3,2.2,3.7c-1.8,1.8-4.3,3.6-7.1,5.8C84.3,87.8,83.7,87.5,83.8,87z M110.7,90.9
	c-0.7,6.4-5.8,11.5-12.2,12.1c-6.3,0.6-11.9-3.1-14-8.6c-0.4-1.1-0.1-2.3,0.7-3.1c1.2-1.1,2.4-2.2,3.7-3.2l2-1.6
	c-0.2,0.7-0.3,1.4-0.3,2.1c0,3.7,3,6.7,6.7,6.7c3.7,0,6.7-3,6.7-6.7c0-3.7-3-6.7-6.7-6.7c-0.2,0-0.4,0-0.6,0l5-3.9
	c0.9-0.7,2.1-0.7,3-0.1C108.7,80.7,111.3,85.5,110.7,90.9z"/>
</svg>
